#N canvas 827 239 527 327 12;
#X obj 449 738 scope~ 200 100 256 3 128 -1 1 0 0 0 0 77 77 77 228 228 228 183 183 183 0 empty;
#X obj 297 182 osc~ 440;
#X obj 297 250 *~ 0.3;
#X obj 571 252 *~ 0.3;
#X obj 911 176 click~;
#X obj 320 739 output~;
#X floatatom 298 115 3 0 0 0 - - - 16;
#X floatatom 572 115 3 0 0 0 - - - 16;
#X obj 296 290 scope~ 200 100 256 3 128 -1 1 0 0 0 0 77 77 77 228 228 228 183 183 183 0 empty;
#X obj 570 293 scope~ 200 100 256 3 128 -1 1 0 0 0 0 77 77 77 228 228 228 183 183 183 0 empty;
#X obj 335 576 +~ 0.5;
#X obj 572 182 phasor~ 100;
#X floatatom 320 213 5 0 0 0 - - - 0;
#X floatatom 594 215 5 0 0 0 - - - 0;
#X obj 904 291 scope~ 200 100 256 3 128 -1 1 0 0 0 0 77 77 77 228 228 228 183 183 183 0 empty;
#X obj 912 116 bng 25 250 50 0 empty empty empty 17 7 0 10 #e4e4e4 #4d4d4d #373737;
#X text 338 115 freq;
#X text 362 212 volume;
#X text 373 183 sinewave;
#X text 668 180 sinewave;
#X text 635 215 volume;
#X text 610 112 freq;
#X obj 334 645 cyclone/allpass~ 40 40 0.5;
#X connect 1 0 2 0;
#X connect 2 0 8 0;
#X connect 2 0 10 0;
#X connect 3 0 9 0;
#X connect 3 0 10 0;
#X connect 4 0 10 0;
#X connect 6 0 1 0;
#X connect 7 0 11 0;
#X connect 10 0 0 0;
#X connect 10 0 22 0;
#X connect 11 0 3 0;
#X connect 12 0 2 1;
#X connect 13 0 3 1;
#X connect 15 0 4 0;
#X connect 22 0 5 0;
#X connect 22 0 5 1;
