#N canvas 827 239 527 327 12;
#X obj 258 590 scope~ 200 100 256 3 128 -1 1 0 0 0 0 77 77 77 228 228 228 183 183 183 0 empty;
#X obj 121 69 osc~ 440;
#X obj 121 163 *~ 0.3;
#X obj 395 165 *~ 0.3, f 12;
#X obj 1105 89 click~;
#X obj 125 632 output~;
#X floatatom 122 27 3 0 0 0 - - - 16;
#X floatatom 396 28 3 0 0 0 - - - 16;
#X obj 120 203 scope~ 200 100 256 3 128 -1 1 0 0 0 0 77 77 77 228 228 228 183 183 183 0 empty;
#X obj 395 206 scope~ 200 100 256 3 128 -1 1 0 0 0 0 77 77 77 228 228 228 183 183 183 0 empty;
#X obj 124 483 +~ 0.5;
#X obj 396 69 phasor~ 100;
#X floatatom 144 126 5 0 0 0 - - - 0;
#X floatatom 463 132 5 0 0 0 - - - 0;
#X obj 1105 204 scope~ 200 100 256 3 128 -1 1 0 0 0 0 77 77 77 228 228 228 183 183 183 0 empty;
#X obj 1106 29 bng 25 250 50 0 empty empty empty 17 7 0 10 #e4e4e4 #4d4d4d #373737;
#X text 162 28 freq;
#X text 186 125 volume;
#X text 197 70 sinewave;
#X text 502 128 volume;
#X text 434 25 freq;
#X obj 124 546 cyclone/allpass~ 40 40 0.5;
#X text 492 67 saw;
#X obj 399 100 *~ 2;
#X obj 396 132 -~ 1;
#X obj 657 162 *~ 0.3, f 12;
#X floatatom 658 25 3 0 0 0 - - - 16;
#X obj 657 203 scope~ 200 100 256 3 128 -1 1 0 0 0 0 77 77 77 228 228 228 183 183 183 0 empty;
#X obj 658 66 phasor~ 100;
#X floatatom 725 129 5 0 0 0 - - - 0;
#X text 764 125 volume;
#X text 696 22 freq;
#X text 754 64 rectangular;
#X obj 661 97 expr~ $v1 > 0.5;
#X obj 874 158 *~ 0.3, f 12;
#X floatatom 875 21 3 0 0 0 - - - 16;
#X obj 874 199 scope~ 200 100 256 3 128 -1 1 0 0 0 0 77 77 77 228 228 228 183 183 183 0 empty;
#X floatatom 942 125 5 0 0 0 - - - 0;
#X text 981 121 volume;
#X text 913 18 freq;
#X obj 875 62 tri~;
#X text 971 60 triangular;
#X connect 1 0 2 0;
#X connect 2 0 8 0;
#X connect 2 0 10 0;
#X connect 3 0 9 0;
#X connect 3 0 10 0;
#X connect 4 0 10 0;
#X connect 4 0 14 0;
#X connect 6 0 1 0;
#X connect 7 0 11 0;
#X connect 10 0 0 0;
#X connect 10 0 21 0;
#X connect 11 0 23 0;
#X connect 12 0 2 1;
#X connect 13 0 3 1;
#X connect 15 0 4 0;
#X connect 21 0 5 0;
#X connect 21 0 5 1;
#X connect 23 0 24 0;
#X connect 24 0 3 0;
#X connect 25 0 27 0;
#X connect 25 0 10 0;
#X connect 26 0 28 0;
#X connect 28 0 33 0;
#X connect 29 0 25 1;
#X connect 33 0 25 0;
#X connect 34 0 36 0;
#X connect 34 0 10 0;
#X connect 35 0 40 0;
#X connect 37 0 34 1;
#X connect 40 0 34 0;
