#N canvas 827 239 527 327 12;
#X obj 270 501 dac~, f 9;
#X obj 271 419 *~ 0.5;
#X floatatom 269 216 9 0 0 0 - - - 16;
#X obj 267 38 bng 26 250 50 0 empty empty empty 17 7 0 10 #e4e4e4 #4d4d4d #373737;
#X obj 267 -40 tgl 25 0 empty empty empty 17 7 0 10 #e4e4e4 #4d4d4d #373737 0 1;
#X obj 267 11 metro 100;
#X floatatom 376 -36 12 0 0 0 - - - 16;
#X obj 331 44 print here;
#X obj 272 250 osc~;
#X floatatom 324 119 9 0 0 0 - - - 16;
#X text 182 102 next number;
#X text 423 100 time to go;
#X obj 270 159 pack i 1000;
#X obj 84 216 click~;
#X obj 86 271 *~ 3;
#X obj 270 189 line;
#X obj 396 282 osc~;
#X obj 515 273 osc~;
#X obj 268 74 random 100;
#X obj 425 427 scope~ 358 108 256 3 128 -1 1 0 0 0 0 77 77 77 228 228 228 183 183 183 0 empty;
#X obj 270 119 + 100;
#X obj 273 299 +~;
#X obj 397 248 + 0.2;
#X obj 536 319 +~;
#X obj 515 234 + 100;
#X obj 274 353 *~ 0.2;
#X obj 602 267 osc~;
#X obj 603 220 + 100.3;
#X obj 435 336 *~ 0.2;
#X obj 83 108 bng 26 250 50 0 empty empty empty 17 7 0 10 #e4e4e4 #4d4d4d #373737;
#X floatatom 330 322 9 0 0 0 - - - 16;
#X obj 219 451 +~;
#X obj 79 -59 tgl 25 0 empty empty empty 17 7 0 10 #e4e4e4 #4d4d4d #373737 0 1;
#X obj 55 310 palette/plate.rev.m~;
#A saved 21.9565 0.534797 0.4405 0.473031 0.236766;
#X obj 79 -8 metro 1000;
#X connect 1 0 19 0;
#X connect 1 0 31 1;
#X connect 2 0 8 0;
#X connect 2 0 22 0;
#X connect 2 0 24 0;
#X connect 2 0 27 0;
#X connect 3 0 18 0;
#X connect 4 0 5 0;
#X connect 5 0 3 0;
#X connect 5 0 7 0;
#X connect 6 0 5 1;
#X connect 6 0 9 0;
#X connect 8 0 21 0;
#X connect 9 0 12 1;
#X connect 12 0 15 0;
#X connect 13 0 14 0;
#X connect 14 0 33 0;
#X connect 15 0 2 0;
#X connect 16 0 21 1;
#X connect 17 0 23 0;
#X connect 18 0 20 0;
#X connect 20 0 12 0;
#X connect 21 0 25 0;
#X connect 22 0 16 0;
#X connect 23 0 28 0;
#X connect 24 0 17 0;
#X connect 25 0 1 0;
#X connect 26 0 23 1;
#X connect 27 0 26 0;
#X connect 28 0 1 0;
#X connect 29 0 13 0;
#X connect 30 0 1 1;
#X connect 31 0 0 1;
#X connect 31 0 0 0;
#X connect 32 0 34 0;
#X connect 33 0 31 0;
#X connect 34 0 29 0;
