#N canvas 827 239 527 327 12;
#X obj 208 60 tgl 24 0 empty empty empty 17 7 0 10 #e4e4e4 #4d4d4d #373737 0 1;
#X obj 208 139 bng 24 250 50 0 empty empty empty 17 7 0 10 #e4e4e4 #4d4d4d #373737;
#X floatatom 553 494 7 0 0 0 - - - 16;
#X obj 204 410 osc.send 127.0.0.1 9999, f 21;
#X obj 204 453 tgl 24 0 empty empty empty 17 7 0 10 #e4e4e4 #4d4d4d #373737 0 1;
#X obj 635 170 osc.receive 9999, f 19;
#X msg 661 117 connect 9999;
#X obj 207 183 random 1000, f 12;
#X obj 205 278 prepend /ping, f 13;
#X obj 555 453 unpack i s i f i;
#X obj 128 318 print send, f 10;
#X symbolatom 638 496 10 0 0 0 - - - 16;
#X floatatom 755 494 5 0 0 0 - - - 24;
#X floatatom 954 449 5 0 0 0 - - - 24;
#X floatatom 841 492 5 0 0 0 - - - 24;
#X obj 205 229 pak i hellohello 10 1.15 5, f 21;
#X floatatom 283 135 6 0 0 0 - - - 16;
#X obj 208 103 metro 100, f 9;
#X msg 242 373 connect 192.168.0.255 9999, f 25;
#X msg 635 77 disconnect;
#X floatatom 257 66 8 0 0 0 - - - 16;
#X text 379 137 /somedata 100 3.2 blabla Yes No 100, f 32;
#X text 433 372 boadcast address, f 16;
#X text 238 453 connection OK, f 13;
#X text 787 16 Wifi: DATADATA 1234test;
#X text 249 26 Sending, f 8;
#X text 676 30 Receiving;
#X msg 467 304 /somedata 100 3.2, f 17;
#X obj 635 204 route /ping /somedata, f 33;
#X obj 819 258 print test;
#X obj 743 321 unpack i f;
#X floatatom 733 368 7 0 0 0 - - - 16;
#X floatatom 835 368 7 0 0 0 - - - 16;
#X obj 434 224 pak i f, f 6;
#X obj 434 271 prepend /somedata, f 18;
#X floatatom 432 165 8 0 0 0 - - - 16;
#X floatatom 517 167 8 0 0 0 - - - 16;
#X connect 0 0 17 0;
#X connect 1 0 7 0;
#X connect 3 0 4 0;
#X connect 5 0 28 0;
#X connect 6 0 5 0;
#X connect 7 0 15 0;
#X connect 8 0 3 0;
#X connect 8 0 10 0;
#X connect 9 0 2 0;
#X connect 9 1 11 0;
#X connect 9 2 12 0;
#X connect 9 3 14 0;
#X connect 9 4 13 0;
#X connect 15 0 8 0;
#X connect 16 0 15 0;
#X connect 17 0 1 0;
#X connect 18 0 3 0;
#X connect 19 0 5 0;
#X connect 20 0 17 1;
#X connect 27 0 3 0;
#X connect 28 0 9 0;
#X connect 28 1 29 0;
#X connect 28 1 30 0;
#X connect 30 0 31 0;
#X connect 30 1 32 0;
#X connect 33 0 34 0;
#X connect 34 0 3 0;
#X connect 35 0 33 0;
#X connect 36 0 33 1;
