#N canvas 827 239 527 327 12;
#X obj 208 60 tgl 24 0 empty empty empty 17 7 0 10 #e4e4e4 #4d4d4d #373737 0 1;
#X obj 211 148 bng 24 250 50 0 empty empty empty 17 7 0 10 #e4e4e4 #4d4d4d #373737;
#X floatatom 597 489 7 0 0 0 - - - 16;
#X obj 204 410 osc.send 127.0.0.1 9999, f 21;
#X obj 204 453 tgl 45 0 empty empty empty 17 7 0 10 #e4e4e4 #4d4d4d #373737 0 1;
#X obj 635 170 osc.receive 9999, f 19;
#X msg 695 114 connect 9999;
#X obj 207 183 random 1000, f 12;
#X obj 205 261 prepend /ping;
#X obj 599 448 unpack i s i f i;
#X obj 233 293 print send;
#X symbolatom 654 534 25 0 0 0 - - - 24;
#X floatatom 695 486 5 0 0 0 - - - 24;
#X floatatom 871 484 5 0 0 0 - - - 24;
#X floatatom 781 484 5 0 0 0 - - - 24;
#X obj 205 229 pak i hellohello 10 1.15 5, f 21;
#X floatatom 283 135 6 0 0 0 - - - 16;
#X obj 208 103 metro 100;
#X msg 295 375 connect 192.168.0.255 9999, f 25;
#X msg 635 77 disconnect;
#X floatatom 249 52 8 0 0 0 - - - 16;
#X text 381 61 /somedata 100 3.2 blabla Yes No 100, f 32;
#X text 489 373 boadcast address;
#X text 260 465 connection OK, f 14;
#X text 887 9 Wifi: DATADATA 1234test;
#X text 249 25 Sending, f 8;
#X text 676 29 Receiving;
#X obj 662 284 unpack i f;
#X floatatom 655 320 5 0 0 0 - - - 24;
#X floatatom 734 321 5 0 0 0 - - - 24;
#X floatatom 434 136 8 0 0 0 - - - 16;
#X floatatom 529 133 8 0 0 0 - - - 16;
#X msg 409 342 /somedata RALF 100 3.2, f 25;
#X obj 807 331 unpack i f;
#X floatatom 800 367 7 0 0 0 - - - 16;
#X floatatom 887 367 7 0 0 0 - - - 16;
#X obj 982 329 unpack i f;
#X floatatom 975 365 7 0 0 0 - - - 16;
#X floatatom 1060 365 7 0 0 0 - - - 16;
#X obj 699 245 route RALF YUKI MOON YUNUS, f 33;
#X obj 1153 328 unpack i f;
#X floatatom 1146 364 7 0 0 0 - - - 16;
#X floatatom 1248 364 7 0 0 0 - - - 16;
#X obj 927 129 print testesp32;
#N canvas 733 172 450 300 builddata 0;
#X obj 435 202 pak i f, f 6;
#X obj 434 271 prepend /somedata, f 18;
#X obj 435 238 prepend RALF, f 16;
#X obj 434 136 inlet;
#X obj 529 133 inlet;
#X obj 204 410 outlet;
#X connect 0 0 2 0 32.................I.........PB.........DA....;
#X connect 1 0 5 0;
#X connect 2 0 1 0 32.................G.........vA.........3.....;
#X connect 3 0 0 0;
#X connect 4 0 0 1;
#X restore 447 236 pd builddata;
#X floatatom 969 295 7 0 0 0 - - - 16;
#X msg 243 337 disconnect;
#X obj 635 205 route /ping /somedata /data /knob /knobralf, f 48;
#X floatatom 1100 67 15 0 0 0 - - - 36;
#X obj 1212 188 osc~;
#X obj 1223 278 dac~;
#X obj 1215 161 / 30;
#X connect 0 0 17 0;
#X connect 1 0 7 0;
#X connect 3 0 4 0;
#X connect 5 0 43 0;
#X connect 5 0 47 0;
#X connect 6 0 5 0;
#X connect 8 0 3 0;
#X connect 8 0 10 0;
#X connect 9 0 2 0;
#X connect 9 1 11 0;
#X connect 9 2 12 0;
#X connect 9 3 14 0;
#X connect 9 4 13 0;
#X connect 15 0 8 0;
#X connect 16 0 15 0;
#X connect 17 0 1 0;
#X connect 18 0 3 0;
#X connect 19 0 5 0;
#X connect 20 0 17 1;
#X connect 27 0 28 0;
#X connect 27 1 29 0;
#X connect 30 0 44 0;
#X connect 31 0 44 1;
#X connect 32 0 3 0;
#X connect 33 0 34 0;
#X connect 33 1 35 0;
#X connect 36 0 37 0;
#X connect 36 1 38 0;
#X connect 39 0 27 0;
#X connect 39 1 33 0;
#X connect 39 2 36 0;
#X connect 39 3 40 0;
#X connect 40 0 41 0;
#X connect 40 1 42 0;
#X connect 44 0 3 0;
#X connect 46 0 3 0;
#X connect 47 0 9 0;
#X connect 47 1 39 0;
#X connect 47 3 45 0;
#X connect 47 4 48 0;
#X connect 48 0 51 0;
#X connect 49 0 50 0;
#X connect 49 0 50 1;
#X connect 51 0 49 0;
