#N canvas 827 239 527 327 12;
#X obj 208 103 metro 1000;
#X obj 208 60 tgl 25 0 empty empty empty 17 7 0 10 #e4e4e4 #4d4d4d #373737 0 1;
#X obj 208 139 bng 25 250 50 0 empty empty empty 17 7 0 10 #e4e4e4 #4d4d4d #373737;
#X floatatom 571 456 7 0 0 0 - - - 16;
#X obj 204 410 osc.send 127.0.0.1 9999;
#X obj 204 453 tgl 25 0 empty empty empty 17 7 0 10 #e4e4e4 #4d4d4d #373737 0 1;
#X msg 242 373 connect 127.0.0.1 9999;
#X obj 663 195 osc.receive 9999, f 19;
#X msg 663 130 connect 9999;
#X obj 663 240 route /ping;
#X obj 208 180 random 1000;
#X obj 205 337 prepend /ping;
#X obj 769 239 print receive;
#X obj 664 280 unpack i s i f i;
#X obj 318 339 print send;
#X symbolatom 656 458 10 0 0 0 - - - 16;
#X floatatom 773 456 5 0 0 0 - - - 24;
#X floatatom 954 449 5 0 0 0 - - - 24;
#X obj 206 270 pak i blabla 10 1.15 5;
#X floatatom 859 454 5 0 0 0 - - - 24;
#X connect 0 0 2 0;
#X connect 1 0 0 0;
#X connect 2 0 10 0;
#X connect 4 0 5 0;
#X connect 6 0 4 0;
#X connect 7 0 9 0;
#X connect 7 0 12 0;
#X connect 8 0 7 0;
#X connect 9 0 13 0;
#X connect 10 0 18 0;
#X connect 11 0 4 0;
#X connect 11 0 14 0;
#X connect 13 0 3 0;
#X connect 13 1 15 0;
#X connect 13 2 16 0;
#X connect 13 3 19 0;
#X connect 13 4 17 0;
#X connect 18 0 11 0;
